<svg version="1.1" viewBox="0.0 0.0 480.0 480.0" fill="none" stroke="none" stroke-linecap="square" stroke-miterlimit="10" xmlns:xlink="http://www.w3.org/1999/xlink" xmlns="http://www.w3.org/2000/svg"><clipPath id="p.0"><path d="m0 0l480.0 0l0 480.0l-480.0 0l0 -480.0z" clip-rule="nonzero"/></clipPath><g clip-path="url(#p.0)"><path fill="#0078d7" d="m0 0l480.0 0l0 480.0l-480.0 0z" fill-rule="evenodd"/><path fill="#000000" fill-opacity="0.0" d="m22.555346 247.9519l0 0c0 -102.237915 82.8802 -185.1181 185.11812 -185.1181l0 0c49.096375 0 96.181885 19.503456 130.89825 54.21984c34.7164 34.71637 54.21985 81.801895 54.21985 130.89827l0 0c0 102.237915 -82.88019 185.1181 -185.1181 185.1181l0 0c-102.237915 0 -185.11812 -82.88019 -185.11812 -185.1181z" fill-rule="evenodd"/><path stroke="#f8f8ff" stroke-width="8.0" stroke-linejoin="round" stroke-linecap="butt" d="m22.555346 247.9519l0 0c0 -102.237915 82.8802 -185.1181 185.11812 -185.1181l0 0c49.096375 0 96.181885 19.503456 130.89825 54.21984c34.7164 34.71637 54.21985 81.801895 54.21985 130.89827l0 0c0 102.237915 -82.88019 185.1181 -185.1181 185.1181l0 0c-102.237915 0 -185.11812 -82.88019 -185.11812 -185.1181z" fill-rule="evenodd"/><path fill="#000000" fill-opacity="0.0" d="m227.83917 161.74876l0 0c0 -63.41272 51.39911 -114.81889 114.80316 -114.81889l0 0c30.447693 0 59.648315 12.096954 81.17807 33.629677c21.529785 21.532722 33.62506 50.73736 33.62506 81.18922l0 0c0 63.412735 -51.39911 114.81889 -114.80313 114.81889l0 0c-63.404053 0 -114.80316 -51.40616 -114.80316 -114.81889z" fill-rule="evenodd"/><path stroke="#f8f8ff" stroke-width="8.0" stroke-linejoin="round" stroke-linecap="butt" d="m227.83917 161.74876l0 0c0 -63.41272 51.39911 -114.81889 114.80316 -114.81889l0 0c30.447693 0 59.648315 12.096954 81.17807 33.629677c21.529785 21.532722 33.62506 50.73736 33.62506 81.18922l0 0c0 63.412735 -51.39911 114.81889 -114.80313 114.81889l0 0c-63.404053 0 -114.80316 -51.40616 -114.80316 -114.81889z" fill-rule="evenodd"/></g></svg>